<svg width="183" height="31" viewBox="0 0 183 31" fill="none" xmlns="http://www.w3.org/2000/svg">
<path d="M4.68994 20.3521H14.332V24H0.148926V1.96094H4.68994V20.3521ZM24.2012 24.3027C21.7995 24.3027 19.8418 23.5661 18.3281 22.0928C16.8245 20.6195 16.0728 18.6567 16.0728 16.2046V15.7808C16.0728 14.1359 16.3906 12.6676 17.0264 11.376C17.6621 10.0742 18.5602 9.0752 19.7207 8.37891C20.8913 7.67253 22.2233 7.31934 23.7168 7.31934C25.957 7.31934 27.7179 8.02572 28.9995 9.43848C30.2912 10.8512 30.937 12.8543 30.937 15.4478V17.2339H20.5078C20.6491 18.3035 21.0729 19.1613 21.7793 19.8071C22.4958 20.453 23.3989 20.7759 24.4888 20.7759C26.174 20.7759 27.4909 20.1654 28.4395 18.9443L30.5889 21.3511C29.9329 22.2795 29.0449 23.006 27.9248 23.5308C26.8047 24.0454 25.5635 24.3027 24.2012 24.3027ZM23.7017 10.8613C22.8338 10.8613 22.1274 11.154 21.5825 11.7393C21.0477 12.3245 20.7046 13.1621 20.5532 14.252H26.6382V13.9038C26.618 12.9351 26.3556 12.1883 25.8511 11.6636C25.3465 11.1287 24.63 10.8613 23.7017 10.8613ZM38.6719 3.5957V7.62207H41.4722V10.8311H38.6719V19.0049C38.6719 19.6104 38.7879 20.0443 39.02 20.3066C39.2521 20.569 39.6961 20.7002 40.3521 20.7002C40.8364 20.7002 41.2653 20.6649 41.6387 20.5942V23.9092C40.7809 24.1715 39.8979 24.3027 38.9897 24.3027C35.922 24.3027 34.3579 22.7537 34.2974 19.6558V10.8311H31.9058V7.62207H34.2974V3.5957H38.6719ZM50.7812 5.44238H47.1938L43.0161 0.75H47.7842L50.7812 5.44238ZM63.042 19.4741C63.042 18.9393 62.7746 18.5205 62.2397 18.2178C61.715 17.9049 60.8674 17.6274 59.6968 17.3853C55.8016 16.5679 53.854 14.9129 53.854 12.4204C53.854 10.9673 54.4544 9.75635 55.6553 8.7876C56.8662 7.80876 58.4455 7.31934 60.3931 7.31934C62.4718 7.31934 64.1318 7.80876 65.373 8.7876C66.6243 9.76644 67.25 11.0379 67.25 12.6021H62.8755C62.8755 11.9764 62.6737 11.4618 62.27 11.0581C61.8664 10.6444 61.2357 10.4375 60.3779 10.4375C59.6413 10.4375 59.0711 10.604 58.6675 10.937C58.2638 11.27 58.062 11.6938 58.062 12.2085C58.062 12.6929 58.2891 13.0864 58.7432 13.3892C59.2074 13.6818 59.9844 13.9391 61.0742 14.1611C62.1641 14.373 63.0824 14.6152 63.8291 14.8877C66.14 15.7354 67.2954 17.2036 67.2954 19.2925C67.2954 20.786 66.6546 21.9969 65.373 22.9253C64.0915 23.8436 62.4365 24.3027 60.4082 24.3027C59.0358 24.3027 57.8148 24.0605 56.7451 23.5762C55.6855 23.0817 54.853 22.4106 54.2476 21.563C53.6421 20.7052 53.3394 19.7819 53.3394 18.793H57.4868C57.5272 19.57 57.8148 20.1654 58.3496 20.5791C58.8844 20.9928 59.6009 21.1997 60.499 21.1997C61.3366 21.1997 61.9673 21.0433 62.3911 20.7305C62.825 20.4076 63.042 19.9888 63.042 19.4741ZM77.21 15.6899C77.21 13.1772 77.8053 11.154 78.9961 9.62012C80.1969 8.08626 81.8115 7.31934 83.8398 7.31934C85.6361 7.31934 87.0337 7.9349 88.0327 9.16602L88.2144 7.62207H92.1802V23.4551C92.1802 24.888 91.8522 26.1343 91.1963 27.1938C90.5505 28.2534 89.6372 29.0607 88.4565 29.6157C87.2759 30.1707 85.8934 30.4482 84.3091 30.4482C83.1082 30.4482 81.9377 30.2061 80.7974 29.7217C79.6571 29.2474 78.7943 28.6318 78.209 27.875L80.1465 25.2109C81.2363 26.432 82.5583 27.0425 84.1123 27.0425C85.2728 27.0425 86.1759 26.7297 86.8218 26.104C87.4676 25.4884 87.7905 24.6105 87.7905 23.4702V22.5923C86.7814 23.7326 85.4544 24.3027 83.8096 24.3027C81.8418 24.3027 80.2474 23.5358 79.0264 22.002C77.8154 20.458 77.21 18.4146 77.21 15.8716V15.6899ZM81.5845 16.0078C81.5845 17.4912 81.8822 18.6567 82.4775 19.5044C83.0729 20.342 83.8903 20.7607 84.9297 20.7607C86.2617 20.7607 87.2153 20.2612 87.7905 19.2622V12.375C87.2052 11.376 86.2617 10.8765 84.96 10.8765C83.9105 10.8765 83.083 11.3053 82.4775 12.1631C81.8822 13.0208 81.5845 14.3024 81.5845 16.0078ZM103.094 24.3027C100.692 24.3027 98.7344 23.5661 97.2207 22.0928C95.7171 20.6195 94.9653 18.6567 94.9653 16.2046V15.7808C94.9653 14.1359 95.2832 12.6676 95.9189 11.376C96.5547 10.0742 97.4528 9.0752 98.6133 8.37891C99.7839 7.67253 101.116 7.31934 102.609 7.31934C104.85 7.31934 106.611 8.02572 107.892 9.43848C109.184 10.8512 109.83 12.8543 109.83 15.4478V17.2339H99.4004C99.5417 18.3035 99.9655 19.1613 100.672 19.8071C101.388 20.453 102.292 20.7759 103.381 20.7759C105.067 20.7759 106.383 20.1654 107.332 18.9443L109.481 21.3511C108.826 22.2795 107.938 23.006 106.817 23.5308C105.697 24.0454 104.456 24.3027 103.094 24.3027ZM102.594 10.8613C101.726 10.8613 101.02 11.154 100.475 11.7393C99.9403 12.3245 99.5972 13.1621 99.4458 14.252H105.531V13.9038C105.511 12.9351 105.248 12.1883 104.744 11.6636C104.239 11.1287 103.523 10.8613 102.594 10.8613ZM117.564 3.5957V7.62207H120.365V10.8311H117.564V19.0049C117.564 19.6104 117.681 20.0443 117.913 20.3066C118.145 20.569 118.589 20.7002 119.245 20.7002C119.729 20.7002 120.158 20.6649 120.531 20.5942V23.9092C119.674 24.1715 118.791 24.3027 117.882 24.3027C114.815 24.3027 113.25 22.7537 113.19 19.6558V10.8311H110.798V7.62207H113.19V3.5957H117.564ZM135.759 3.5957V7.62207H138.559V10.8311H135.759V19.0049C135.759 19.6104 135.875 20.0443 136.107 20.3066C136.339 20.569 136.783 20.7002 137.439 20.7002C137.923 20.7002 138.352 20.6649 138.726 20.5942V23.9092C137.868 24.1715 136.985 24.3027 136.077 24.3027C133.009 24.3027 131.445 22.7537 131.384 19.6558V10.8311H128.993V7.62207H131.384V3.5957H135.759ZM139.861 15.6597C139.861 14.035 140.174 12.5869 140.799 11.3154C141.425 10.0439 142.323 9.06006 143.494 8.36377C144.674 7.66748 146.042 7.31934 147.596 7.31934C149.806 7.31934 151.607 7.99544 153 9.34766C154.402 10.6999 155.184 12.5365 155.346 14.8574L155.376 15.9775C155.376 18.4902 154.675 20.5085 153.272 22.0322C151.869 23.5459 149.987 24.3027 147.626 24.3027C145.265 24.3027 143.378 23.5459 141.965 22.0322C140.562 20.5186 139.861 18.46 139.861 15.8564V15.6597ZM144.235 15.9775C144.235 17.5316 144.528 18.7223 145.113 19.5498C145.699 20.3672 146.536 20.7759 147.626 20.7759C148.686 20.7759 149.513 20.3722 150.108 19.5649C150.704 18.7476 151.001 17.4458 151.001 15.6597C151.001 14.1359 150.704 12.9552 150.108 12.1177C149.513 11.2801 148.675 10.8613 147.596 10.8613C146.526 10.8613 145.699 11.2801 145.113 12.1177C144.528 12.9451 144.235 14.2318 144.235 15.9775ZM170.407 24H166.017V7.62207H170.407V24ZM165.76 3.38379C165.76 2.72786 165.977 2.18799 166.411 1.76416C166.855 1.34033 167.455 1.12842 168.212 1.12842C168.959 1.12842 169.554 1.34033 169.998 1.76416C170.442 2.18799 170.664 2.72786 170.664 3.38379C170.664 4.0498 170.437 4.59473 169.983 5.01855C169.539 5.44238 168.949 5.6543 168.212 5.6543C167.475 5.6543 166.88 5.44238 166.426 5.01855C165.982 4.59473 165.76 4.0498 165.76 3.38379ZM179.262 3.5957V7.62207H182.062V10.8311H179.262V19.0049C179.262 19.6104 179.378 20.0443 179.61 20.3066C179.842 20.569 180.286 20.7002 180.942 20.7002C181.426 20.7002 181.855 20.6649 182.229 20.5942V23.9092C181.371 24.1715 180.488 24.3027 179.58 24.3027C176.512 24.3027 174.948 22.7537 174.887 19.6558V10.8311H172.496V7.62207H174.887V3.5957H179.262Z" fill="#011F3A"/>
</svg>
